<ttFont>
<head>
    <!-- Most of this table will be recalculated by the compiler -->
    <tableVersion value="1.0"/>
    <fontRevision value="1.004"/>
    <checkSumAdjustment value="0xa918339b"/>
    <magicNumber value="0x5f0f3cf5"/>
    <flags value="00000000 00000011"/>
    <unitsPerEm value="1000"/>
    <created value="Mon Jun 15 05:18:06 2015"/>
    <modified value="Thu Jun  6 21:34:30 2019"/>
    <xMin value="-56"/>
    <yMin value="-549"/>
    <xMax value="1000"/>
    <yMax value="1323"/>
    <macStyle value="00000000 00000000"/>
    <lowestRecPPEM value="3"/>
    <fontDirectionHint value="2"/>
    <indexToLocFormat value="0"/>
    <glyphDataFormat value="0"/>
  </head>
        <CharString name=".notdef" fdSelectIndex="0">
          endchar
        </CharString>
        <CharString name="cid00001" fdSelectIndex="1">
          endchar
        </CharString>
        <CharString name="cid00002" fdSelectIndex="1">
          endchar
        </CharString>
        <CharString name="cid00003" fdSelectIndex="1">
          endchar
        </CharString>
        <CharString name="cid00004" fdSelectIndex="1">
          endchar
        </CharString>
        <CharString name="cid00005" fdSelectIndex="1">
          endchar
        </CharString>
        <CharString name="cid00006" fdSelectIndex="1">
          endchar
        </CharString>
        <CharString name="cid00007" fdSelectIndex="1">
          endchar
        </CharString>
        <CharString name="cid00008" fdSelectIndex="1">
          endchar
        </CharString>
        <CharString name="cid00009" fdSelectIndex="1">
          endchar
        </CharString>
        <CharString name="cid00010" fdSelectIndex="1">
          endchar
        </CharString>
        <CharString name="cid00011" fdSelectIndex="1">
          endchar
        </CharString>
        <CharString name="cid00012" fdSelectIndex="1">
          endchar
        </CharString>
        <CharString name="cid00013" fdSelectIndex="1">
          endchar
        </CharString>
        <CharString name="cid00014" fdSelectIndex="1">
          endchar
        </CharString>
        <CharString name="cid00015" fdSelectIndex="1">
          endchar
        </CharString>
        <CharString name="cid00016" fdSelectIndex="1">
          endchar
        </CharString>
        <CharString name="cid00017" fdSelectIndex="2">
          endchar
        </CharString>
        <CharString name="cid00018" fdSelectIndex="2">
          endchar
        </CharString>
        <CharString name="cid00019" fdSelectIndex="2">
          endchar
        </CharString>
        <CharString name="cid00020" fdSelectIndex="2">
          endchar
        </CharString>
        <CharString name="cid00021" fdSelectIndex="2">
          endchar
        </CharString>
        <CharString name="cid00022" fdSelectIndex="2">
          endchar
        </CharString>
        <CharString name="cid00023" fdSelectIndex="2">
          endchar
        </CharString>
        <CharString name="cid00024" fdSelectIndex="2">
          endchar
        </CharString>
        <CharString name="cid00025" fdSelectIndex="2">
          endchar
        </CharString>
        <CharString name="cid00026" fdSelectIndex="2">
          endchar
        </CharString>
        <CharString name="cid00027" fdSelectIndex="1">
          endchar
        </CharString>
        <CharString name="cid00028" fdSelectIndex="1">
          endchar
        </CharString>
        <CharString name="cid00029" fdSelectIndex="1">
          endchar
        </CharString>
        <CharString name="cid00030" fdSelectIndex="1">
          endchar
        </CharString>
        <CharString name="cid00031" fdSelectIndex="1">
          endchar
        </CharString>
        <CharString name="cid00032" fdSelectIndex="1">
          endchar
        </CharString>
        <CharString name="cid00033" fdSelectIndex="1">
          endchar
        </CharString>
        <CharString name="cid00034" fdSelectIndex="1">
          endchar
        </CharString>
        <CharString name="cid00035" fdSelectIndex="1">
          endchar
        </CharString>
        <CharString name="cid00036" fdSelectIndex="1">
          endchar
        </CharString>
        <CharString name="cid00037" fdSelectIndex="1">
          endchar
        </CharString>
        <CharString name="cid00038" fdSelectIndex="1">
          endchar
        </CharString>
        <CharString name="cid00039" fdSelectIndex="1">
          endchar
        </CharString>
        <CharString name="cid00040" fdSelectIndex="1">
          endchar
        </CharString>
        <CharString name="cid00041" fdSelectIndex="1">
          endchar
        </CharString>
        <CharString name="cid00042" fdSelectIndex="1">
          endchar
        </CharString>
        <CharString name="cid00043" fdSelectIndex="1">
          endchar
        </CharString>
        <CharString name="cid00044" fdSelectIndex="1">
          endchar
        </CharString>
        <CharString name="cid00045" fdSelectIndex="1">
          endchar
        </CharString>
        <CharString name="cid00046" fdSelectIndex="1">
          endchar
        </CharString>
        <CharString name="cid00047" fdSelectIndex="1">
          endchar
        </CharString>
        <CharString name="cid00048" fdSelectIndex="1">
          endchar
        </CharString>
        <CharString name="cid00049" fdSelectIndex="1">
          endchar
        </CharString>
        <CharString name="cid00050" fdSelectIndex="1">
          endchar
        </CharString>
        <CharString name="cid00051" fdSelectIndex="1">
          endchar
        </CharString>
        <CharString name="cid00052" fdSelectIndex="1">
          endchar
        </CharString>
        <CharString name="cid00053" fdSelectIndex="1">
          endchar
        </CharString>
        <CharString name="cid00054" fdSelectIndex="1">
          endchar
        </CharString>
        <CharString name="cid00055" fdSelectIndex="1">
          endchar
        </CharString>
        <CharString name="cid00056" fdSelectIndex="1">
          endchar
        </CharString>
        <CharString name="cid00057" fdSelectIndex="1">
          endchar
        </CharString>
        <CharString name="cid00058" fdSelectIndex="1">
          endchar
        </CharString>
        <CharString name="cid00059" fdSelectIndex="1">
          endchar
        </CharString>
        <CharString name="cid00060" fdSelectIndex="1">
          endchar
        </CharString>
        <CharString name="cid00061" fdSelectIndex="1">
          endchar
        </CharString>
        <CharString name="cid00062" fdSelectIndex="1">
          endchar
        </CharString>
        <CharString name="cid00063" fdSelectIndex="1">
          endchar
        </CharString>
        <CharString name="cid00064" fdSelectIndex="1">
          endchar
        </CharString>
        <CharString name="cid00065" fdSelectIndex="1">
          endchar
        </CharString>
        <CharString name="cid00066" fdSelectIndex="1">
          -71 -13 73 -39 -21 481 76 hstemhm
          58 89 245 91 hintmask 10111000
          217 -13 rmoveto
          67 61 35 43 52 hvcurveto
          3 hlineto
          hintmask 01111000
          8 -65 rlineto
          75 334 hlineto
          134 -56 89 -132 -87 -77 -39 -32 -50 vhcurveto
          36 -63 rlineto
          29 43 57 29 63 hhcurveto
          89 23 -67 -70 hvcurveto
          -231 -26 -103 -59 -118 vvcurveto
          hintmask 10111000
          -98 68 -56 91 vhcurveto
          26 73 rmoveto
          -54 -42 25 62 70 62 45 183 22 hvcurveto
          -152 vlineto
          -47 -53 -43 -25 -53 hhcurveto
          endchar
        </CharString>
        <CharString name="cid00067" fdSelectIndex="1">
          endchar
        </CharString>
        <CharString name="cid00068" fdSelectIndex="1">
          -126 -13 76 418 76 hstem
          51 95 vstem
          306 -13 rmoveto
          65 62 25 44 48 hvcurveto
          -39 61 rlineto
          -31 -34 -44 -23 -50 hhcurveto
          -100 -68 83 125 125 72 85 98 44 33 -20 -29 32 hvcurveto
          47 61 rlineto
          34 -39 -49 30 -71 hhcurveto
          -139 -123 -105 -181 -180 111 -104 144 hvcurveto
          endchar
        </CharString>
        <CharString name="cid00069" fdSelectIndex="1">
          endchar
        </CharString>
        <CharString name="cid00070" fdSelectIndex="1">
          -81 -13 73 190 65 169 73 hstem
          51 90 291 80 vstem
          311 -13 rmoveto
          74 58 25 31 48 hvcurveto
          -33 60 rlineto
          -27 -40 -43 -16 -53 hhcurveto
          -103 -71 74 116 -6 hvcurveto
          366 hlineto
          2 13 2 19 20 vvcurveto
          155 -78 100 -138 -126 -119 -110 -176 -179 116 -105 144 vhcurveto
          -170 328 rmoveto
          107 11 68 62 77 hhcurveto
          85 50 -59 -110 hvcurveto
          endchar
        </CharString>
        <CharString name="cid00071" fdSelectIndex="1">
          endchar
        </CharString>
        <CharString name="cid00072" fdSelectIndex="1">
          endchar
        </CharString>
        <CharString name="cid00073" fdSelectIndex="1">
          endchar
        </CharString>
        <CharString name="cid00074" fdSelectIndex="1">
          endchar
        </CharString>
        <CharString name="cid00075" fdSelectIndex="1">
          endchar
        </CharString>
        <CharString name="cid00076" fdSelectIndex="1">
          -83 21 -21 543 -20 hstem
          92 90 vstem
          92 hmoveto
          90 143 hlineto
          102 119 159 -262 rlineto
          99 hlineto
          -206 325 182 218 rlineto
          -101 hlineto
          -233 -287 rlineto
          -2 540 -90 hlineto
          endchar
        </CharString>
</ttFont>
